<svg xmlns="http://www.w3.org/2000/svg" viewBox="0 0 3447 1676" width="3447" height="1676"><defs></defs><g transform="matrix(1,0,0,1,0.153131122,0)">
<rect fill="#ffffff" x="0" y="0" width="3447" height="1676"/>
<g>
	<g transform="matrix(1,0,0,1,1723.5,838)">
		<g transform="matrix(1,0,0,1,-0.07646656,0.00402832)">
			<g>
				<g>
					<g>
						<path d="M21744.099609,5995.700195C20680.800781,6998.899902 19538,9601.519531 18423.300781,11179 C18298.800781,11199.599609 18175.199219,11190.799805 18052.900391,11148.299805 C17987.199219,11125.5 17921.800781,11092.900391 17856.699219,11051.599609 C18695.300781,9606.889648 19534.199219,7970 20328.099609,7237 C20328.099609,7237 20428.300781,7149.100098 20428.300781,7149.100098 C20428.300781,7149.100098 21744.099609,5995.700195 21744.099609,5995.700195 " transform="matrix(0.133333325,0,0,-0.133333325,-1865.756652832,1414.198364258)" fill="#0574b4"/>
					</g>
					<g>
						<path d="M21603.199219,7002.200195C21897.699219,6491.100098 22190.300781,6003.399902 22478.900391,5587.600098 C23550.300781,5474.5 24520.599609,7776.200195 25478.699219,10053.099609 C25478.699219,10053.099609 24043.400391,11312.5 24043.400391,11312.5 C23251.099609,9429.889648 22458.900391,7547.299805 21603.199219,7002.200195 " transform="matrix(0.133333325,0,0,-0.133333325,-1865.756652832,1414.198364258)" fill="#0574b4"/>
					</g>
					<g>
						<path d="M12612,6725.899902C13945,7008.399902 15211.900391,11923.299805 16614.599609,12410.400391 C16889.400391,12505.799805 17170.199219,12431.400391 17455.099609,12234.400391 C17455.099609,12234.400391 16307.900391,13255.599609 16307.900391,13255.599609 C16307.900391,13255.599609 16154.299805,13392.299805 16154.299805,13392.299805 C15822.200195,13665.299805 15495.200195,13783.099609 15176.299805,13672.400391 C13942.599609,13244 12830.200195,9394.19043 11673.299805,8280.490234 C11995.900391,7755.399902 12308,7202.200195 12612,6725.899902 " transform="matrix(0.133333325,0,0,-0.133333325,-1865.756652832,1414.198364258)" fill="#0574b4"/>
					</g>
					<g>
						<path d="M3628.669922,8593.110352C3227.290039,8957.25 2865.97998,9682.030273 2504.659912,10406.799805 C2504.659912,10406.799805 1066.349976,11668.900391 1066.349976,11668.900391 C1438.219971,10922.900391 1810.089966,10177 2225.629883,9824.19043 C2225.629883,9824.19043 3628.669922,8593.110352 3628.669922,8593.110352 " transform="matrix(0.133333325,0,0,-0.133333325,-1865.756652832,1414.198364258)" fill="#569daa"/>
					</g>
					<g>
						<path d="M3628.659912,8593.120117C3227.290039,8957.269531 2865.97998,9682.040039 2504.659912,10406.799805 C2504.659912,10406.799805 1066.349976,11668.900391 1066.349976,11668.900391 C1438.219971,10922.900391 1810.089966,10177 2225.629883,9824.19043 C2225.629883,9824.19043 3628.659912,8593.120117 3628.659912,8593.120117 " transform="matrix(0.133333325,0,0,-0.133333325,-1865.756652832,1414.198364258)" fill="#569daa"/>
					</g>
					<g>
						<path d="M3549.620117,8662.480469C3235.639893,8987.400391 2944.530029,9530.889648 2658.5,10099.5 C2658.48999,10099.5 2658.47998,10099.5 2658.469971,10099.599609 C2607.120117,10201.299805 2555.889893,10304.099609 2504.659912,10406.799805 C2504.659912,10406.799805 1066.349976,11668.900391 1066.349976,11668.900391 C1438.219971,10922.900391 1810.089966,10177 2225.629883,9824.19043 C2225.629883,9824.19043 3549.620117,8662.480469 3549.620117,8662.480469 " transform="matrix(0.133333325,0,0,-0.133333325,-1865.756652832,1414.198364258)" fill="#0574b4"/>
					</g>
					<g>
						<path d="M4337.700195,8373.959961C5454.220215,8650.549805 6854.339844,11390.5 8086.790039,11510 C8304.639648,11531.099609 8526.69043,11486.400391 8741.469727,11375.900391 C8741.469727,11375.900391 7652.049805,12331.599609 7652.049805,12331.599609 C7652.049805,12331.599609 7533.569824,12435.5 7533.569824,12435.5 C7247.919922,12670.799805 6953.330078,12801.599609 6648.490234,12772 C5532.560059,12663.900391 4279.180176,10407.299805 3223.330078,9776.230469 C3223.330078,9776.230469 3942.969971,9144.780273 3942.969971,9144.780273 C4073.909912,8882.110352 4204.850098,8619.450195 4337.700195,8373.959961 " transform="matrix(0.133333325,0,0,-0.133333325,-1865.756652832,1414.198364258)" fill="#0574b4"/>
					</g>
					<g>
						<path d="M11867,7068.200195C11212.900391,7724.600098 10528.400391,9169.639648 9785.719727,10235 C9699.669922,10251.700195 9612.80957,10256.400391 9525.099609,10247.900391 C9413.530273,10237.099609 9300.570312,10204.799805 9186.580078,10154.799805 C9700.139648,9288.240234 10188.299805,8460.879883 10661.900391,8130.700195 C10661.900391,8130.700195 11867,7068.200195 11867,7068.200195 " transform="matrix(0.133333325,0,0,-0.133333325,-1865.756652832,1414.198364258)" fill="#0574b4"/>
					</g>
				</g>
				<g>
					<g>
						<path d="M13889.299805,5459.600098C15228.5,5303 16470.099609,10171 17856.699219,11051.599609 C17921.800781,11092.900391 17987.199219,11125.5 18052.900391,11148.299805 C18175.199219,11190.799805 18298.800781,11199.599609 18423.300781,11179 C18553.300781,11157.400391 18684.5,11103.700195 18816.5,11022.599609 C18816.5,11022.599609 17891.800781,11845.700195 17891.800781,11845.700195 C17891.800781,11845.700195 17455.099609,12234.400391 17455.099609,12234.400391 C17170.199219,12431.400391 16889.400391,12505.799805 16614.599609,12410.400391 C15211.900391,11923.299805 13945,7008.399902 12612,6725.899902 C12881.700195,6303.299805 13145.099609,5941.299805 13403.799805,5713.200195 C13567.400391,5569 13729,5478.299805 13889.299805,5459.600098 " transform="matrix(0.133333325,0,0,-0.133333325,-1865.756652832,1414.198364258)" fill="#78b4d6"/>
					</g>
					<g>
						<path d="M21888.400391,5869.299805C21888.400391,5869.299805 23165.400391,4749.899902 23165.400391,4749.899902 C22939.800781,4966.200195 22710.599609,5253.700195 22478.900391,5587.600098 C22190.300781,6003.399902 21897.699219,6491.100098 21603.199219,7002.200195 C20672.699219,8617.110352 19722.900391,10465.799805 18816.5,11022.599609 C18684.5,11103.700195 18553.300781,11157.400391 18423.300781,11179 C19538,9601.519531 20680.800781,6998.899902 21744.099609,5995.700195 C21744.099609,5995.700195 21888.400391,5869.299805 21888.400391,5869.299805 " transform="matrix(0.133333325,0,0,-0.133333325,-1865.756652832,1414.198364258)" fill="#78b4d6"/>
					</g>
					<g>
						<path d="M25478.699219,10053.099609C24520.599609,7776.200195 23550.300781,5474.5 22478.900391,5587.600098 C22710.599609,5253.700195 22939.800781,4966.200195 23165.400391,4749.899902 C23407,4518.200195 23644.599609,4368.299805 23876.900391,4330.899902 C24970.099609,4154.799805 25945,6471.600098 26920,8788.44043 C26920,8788.44043 25478.699219,10053.099609 25478.699219,10053.099609 " transform="matrix(0.133333325,0,0,-0.133333325,-1865.756652832,1414.198364258)" fill="#78b4d6"/>
					</g>
					<g>
						<path d="M5489.029785,7099.399902C6549.339844,6905.299805 7931,9604.110352 9186.580078,10154.799805 C9300.570312,10204.799805 9413.530273,10237.099609 9525.099609,10247.900391 C9612.80957,10256.400391 9699.669922,10251.700195 9785.719727,10235 C10004.900391,10192.400391 10218.799805,10072.299805 10427.900391,9896.669922 C10427.900391,9896.669922 8741.469727,11375.900391 8741.469727,11375.900391 C8526.69043,11486.400391 8304.639648,11531.099609 8086.790039,11510 C6854.339844,11390.5 5454.220215,8650.549805 4337.700195,8373.959961 C4571.180176,7942.5 4810.560059,7564 5066.169922,7331.799805 C5202.02002,7208.399902 5342.450195,7126.200195 5489.029785,7099.399902 " transform="matrix(0.133333325,0,0,-0.133333325,-1865.756652832,1414.198364258)" fill="#78b4d6"/>
					</g>
					<g>
						<path d="M12612,6725.899902C12308,7202.200195 11995.900391,7755.399902 11673.299805,8280.490234 C11275.700195,8927.620117 10862.099609,9531.919922 10427.900391,9896.669922 C10218.799805,10072.299805 10004.900391,10192.400391 9785.719727,10235 C10528.400391,9169.639648 11212.900391,7724.600098 11867,7068.200195 C11867,7068.200195 12061.299805,6896.899902 12061.299805,6896.899902 C12061.299805,6896.899902 13403.799805,5713.200195 13403.799805,5713.200195 C13145.099609,5941.299805 12881.700195,6303.299805 12612,6725.899902 " transform="matrix(0.133333325,0,0,-0.133333325,-1865.756652832,1414.198364258)" fill="#78b4d6"/>
					</g>
					<g>
						<path d="M4337.700195,8373.959961C4204.850098,8619.450195 4073.909912,8882.110352 3942.969971,9144.780273 C3942.969971,9144.780273 3223.330078,9776.230469 3223.330078,9776.230469 C3223.330078,9776.230469 2504.659912,10406.799805 2504.659912,10406.799805 C2555.909912,10304 2607.159912,10201.200195 2658.52002,10099.400391 C2969.27002,9483.700195 3284.209961,8905.620117 3628.649902,8593.139648 C3628.649902,8593.139648 5066.169922,7331.799805 5066.169922,7331.799805 C4810.560059,7564 4571.180176,7942.5 4337.700195,8373.959961 " transform="matrix(0.133333325,0,0,-0.133333325,-1865.756652832,1414.198364258)" fill="#78b4d6"/>
					</g>
				</g>
				<g>
					<path d="M-1616.256859,-789.047944C-1616.256859,-789.047944 -1616.256859,-588.865576 -1616.256859,-588.865576 C-1616.256859,-588.865576 -1642.046867,-588.865576 -1642.046867,-588.865576 C-1642.046867,-588.865576 -1642.046867,-789.047944 -1642.046867,-789.047944 C-1642.046867,-789.047944 -1616.256859,-789.047944 -1616.256859,-789.047944 C-1616.256859,-789.047944 -1616.256859,-789.047944 -1616.256859,-789.047944 ZM-1571.478604,-766.054023Q-1576.579924,-770.923324 -1576.579924,-777.956759 Q-1576.579924,-784.990193 -1571.478604,-789.859494 Q-1566.377284,-794.728795 -1559.00871,-794.728795 Q-1551.923543,-794.728795 -1546.963926,-789.859494 Q-1542.004309,-784.990193 -1542.004309,-777.956759 Q-1542.004309,-770.923324 -1546.963926,-766.054023 Q-1551.923543,-761.184722 -1559.00871,-761.184722 Q-1566.377284,-761.184722 -1571.478604,-766.054023 Q-1571.478604,-766.054023 -1571.478604,-766.054023 ZM-1546.538816,-737.108735C-1546.538816,-737.108735 -1546.538816,-588.865576 -1546.538816,-588.865576 C-1546.538816,-588.865576 -1572.328824,-588.865576 -1572.328824,-588.865576 C-1572.328824,-588.865576 -1572.328824,-737.108735 -1572.328824,-737.108735 C-1572.328824,-737.108735 -1546.538816,-737.108735 -1546.538816,-737.108735 C-1546.538816,-737.108735 -1546.538816,-737.108735 -1546.538816,-737.108735 ZM-1381.029315,-723.447641Q-1363.458101,-707.08138 -1363.458101,-676.242475 Q-1363.458101,-588.865576 -1363.458101,-588.865576 C-1363.458101,-588.865576 -1388.964702,-588.865576 -1388.964702,-588.865576 C-1388.964702,-588.865576 -1388.964702,-672.725757 -1388.964702,-672.725757 Q-1388.964702,-694.908128 -1400.584376,-706.675605 Q-1412.20405,-718.443082 -1432.325924,-718.443082 Q-1452.731205,-718.443082 -1464.775989,-706.26983 Q-1476.820773,-694.096578 -1476.820773,-670.83214 Q-1476.820773,-588.865576 -1476.820773,-588.865576 C-1476.820773,-588.865576 -1502.610781,-588.865576 -1502.610781,-588.865576 C-1502.610781,-588.865576 -1502.610781,-737.108735 -1502.610781,-737.108735 C-1502.610781,-737.108735 -1476.820773,-737.108735 -1476.820773,-737.108735 C-1476.820773,-737.108735 -1476.820773,-716.008431 -1476.820773,-716.008431 Q-1469.168793,-727.370133 -1455.990382,-733.592018 Q-1442.811971,-739.813902 -1426.941197,-739.813902 Q-1398.600529,-739.813902 -1381.029315,-723.447641 Q-1381.029315,-723.447641 -1381.029315,-723.447641 ZM-1180.377386,-653.789587C-1180.377386,-653.789587 -1304.509512,-653.789587 -1304.509512,-653.789587 Q-1303.092478,-631.877734 -1288.780441,-619.569223 Q-1274.468404,-607.260713 -1254.063123,-607.260713 Q-1237.342129,-607.260713 -1226.147565,-614.699922 Q-1214.953001,-622.139132 -1210.418494,-634.582901 Q-1182.64464,-634.582901 -1182.64464,-634.582901 Q-1188.879586,-613.21208 -1207.584427,-599.821503 Q-1226.289268,-586.430926 -1254.063123,-586.430926 Q-1276.168844,-586.430926 -1293.598355,-595.899011 Q-1311.027865,-605.367096 -1320.947099,-622.815424 Q-1330.866333,-640.263752 -1330.866333,-663.257672 Q-1330.866333,-686.251593 -1321.230506,-703.564663 Q-1311.594679,-720.877732 -1294.165168,-730.210559 Q-1276.735657,-739.543385 -1254.063123,-739.543385 Q-1231.957402,-739.543385 -1214.953001,-730.345817 Q-1197.9486,-721.148249 -1188.737883,-705.052504 Q-1179.527166,-688.95676 -1179.527166,-668.668007 Q-1179.527166,-661.634572 -1180.377386,-653.789587 Q-1180.377386,-653.789587 -1180.377386,-653.789587 ZM-1212.685748,-698.01907Q-1219.204101,-708.163447 -1230.398665,-713.438523 Q-1241.593229,-718.713598 -1255.196749,-718.713598 Q-1274.75181,-718.713598 -1288.497034,-706.810863 Q-1302.242258,-694.908128 -1304.226105,-673.807824 Q-1206.167394,-673.807824 -1206.167394,-673.807824 Q-1206.167394,-687.874693 -1212.685748,-698.01907 Q-1212.685748,-698.01907 -1212.685748,-698.01907 ZM-1145.518364,-703.429404Q-1135.882537,-720.607215 -1119.01984,-730.0753 Q-1102.157143,-739.543385 -1081.468455,-739.543385 Q-1061.063174,-739.543385 -1046.04262,-731.157367 Q-1031.022066,-722.771349 -1023.653492,-710.057064 Q-1023.653492,-737.108735 -1023.653492,-737.108735 C-1023.653492,-737.108735 -997.580078,-737.108735 -997.580078,-737.108735 C-997.580078,-737.108735 -997.580078,-588.865576 -997.580078,-588.865576 C-997.580078,-588.865576 -1023.653492,-588.865576 -1023.653492,-588.865576 C-1023.653492,-588.865576 -1023.653492,-616.458281 -1023.653492,-616.458281 Q-1031.305473,-603.473479 -1046.46773,-594.952202 Q-1061.629987,-586.430926 -1081.751862,-586.430926 Q-1102.440549,-586.430926 -1119.161543,-596.169527 Q-1135.882537,-605.908129 -1145.518364,-623.491715 Q-1155.154192,-641.075302 -1155.154192,-663.528189 Q-1155.154192,-686.251593 -1145.518364,-703.429404 Q-1145.518364,-703.429404 -1145.518364,-703.429404 ZM-1030.738659,-692.473477Q-1037.823826,-704.917246 -1049.86861,-711.544906 Q-1061.913394,-718.172565 -1076.367135,-718.172565 Q-1090.820875,-718.172565 -1102.723956,-711.680164 Q-1114.627036,-705.187763 -1121.712203,-692.743994 Q-1128.79737,-680.300225 -1128.79737,-663.528189 Q-1128.79737,-646.485636 -1121.712203,-633.906609 Q-1114.627036,-621.327582 -1102.723956,-614.699922 Q-1090.820875,-608.072263 -1076.367135,-608.072263 Q-1061.913394,-608.072263 -1049.86861,-614.699922 Q-1037.823826,-621.327582 -1030.738659,-633.906609 Q-1023.653492,-646.485636 -1023.653492,-663.257672 Q-1023.653492,-680.029708 -1030.738659,-692.473477 Q-1030.738659,-692.473477 -1030.738659,-692.473477 ZM-908.732084,-732.780468Q-896.120486,-739.813902 -877.982459,-739.813902 Q-877.982459,-714.385331 -877.982459,-714.385331 C-877.982459,-714.385331 -884.784219,-714.385331 -884.784219,-714.385331 Q-928.145441,-714.385331 -928.145441,-669.479557 Q-928.145441,-588.865576 -928.145441,-588.865576 C-928.145441,-588.865576 -953.935449,-588.865576 -953.935449,-588.865576 C-953.935449,-588.865576 -953.935449,-737.108735 -953.935449,-737.108735 C-953.935449,-737.108735 -928.145441,-737.108735 -928.145441,-737.108735 C-928.145441,-737.108735 -928.145441,-713.032747 -928.145441,-713.032747 Q-921.343681,-725.747033 -908.732084,-732.780468 Q-908.732084,-732.780468 -908.732084,-732.780468 ZM-744.35621,-595.899011Q-762.069127,-605.367096 -772.130064,-622.815424 Q-782.191001,-640.263752 -782.191001,-663.257672 Q-782.191001,-685.981076 -771.846657,-703.429404 Q-761.502314,-720.877732 -743.647693,-730.210559 Q-725.793072,-739.543385 -703.687351,-739.543385 Q-681.58163,-739.543385 -663.727009,-730.210559 Q-645.872388,-720.877732 -635.528045,-703.564663 Q-625.183701,-686.251593 -625.183701,-663.257672 Q-625.183701,-640.263752 -635.811451,-622.815424 Q-646.439202,-605.367096 -664.577229,-595.899011 Q-682.715257,-586.430926 -704.820978,-586.430926 Q-726.643292,-586.430926 -744.35621,-595.899011 Q-744.35621,-595.899011 -744.35621,-595.899011 ZM-678.747563,-614.294147Q-666.561076,-620.516032 -659.050799,-632.9598 Q-651.540522,-645.403569 -651.540522,-663.257672 Q-651.540522,-681.111775 -658.909096,-693.555544 Q-666.277669,-705.999313 -678.18075,-712.085939 Q-690.08383,-718.172565 -703.970758,-718.172565 Q-718.141092,-718.172565 -729.902469,-712.085939 Q-741.663846,-705.999313 -748.749013,-693.555544 Q-755.83418,-681.111775 -755.83418,-663.257672 Q-755.83418,-645.133053 -748.890716,-632.689284 Q-741.947253,-620.245515 -730.327579,-614.158889 Q-718.707905,-608.072263 -704.820978,-608.072263 Q-690.93405,-608.072263 -678.747563,-614.294147 Q-678.747563,-614.294147 -678.747563,-614.294147 ZM-542.570654,-731.022109Q-527.408396,-739.543385 -507.286522,-739.543385 Q-486.597834,-739.543385 -469.735137,-730.0753 Q-452.87244,-720.607215 -443.236612,-703.429404 Q-433.600785,-686.251593 -433.600785,-663.528189 Q-433.600785,-641.075302 -443.236612,-623.491715 Q-452.87244,-605.908129 -469.735137,-596.169527 Q-486.597834,-586.430926 -507.286522,-586.430926 Q-527.12499,-586.430926 -542.287247,-594.952202 Q-557.449504,-603.473479 -565.384891,-616.187764 Q-565.384891,-518.531231 -565.384891,-518.531231 C-565.384891,-518.531231 -591.174899,-518.531231 -591.174899,-518.531231 C-591.174899,-518.531231 -591.174899,-737.108735 -591.174899,-737.108735 C-591.174899,-737.108735 -565.384891,-737.108735 -565.384891,-737.108735 C-565.384891,-737.108735 -565.384891,-709.786547 -565.384891,-709.786547 Q-557.732911,-722.500832 -542.570654,-731.022109 Q-542.570654,-731.022109 -542.570654,-731.022109 ZM-467.042774,-692.743994Q-474.127941,-705.187763 -486.172724,-711.680164 Q-498.217508,-718.172565 -512.671249,-718.172565 Q-526.841583,-718.172565 -538.886367,-711.544906 Q-550.931151,-704.917246 -558.158021,-692.338219 Q-565.384891,-679.759192 -565.384891,-663.257672 Q-565.384891,-646.485636 -558.158021,-633.906609 Q-550.931151,-621.327582 -538.886367,-614.699922 Q-526.841583,-608.072263 -512.671249,-608.072263 Q-498.217508,-608.072263 -486.172724,-614.699922 Q-474.127941,-621.327582 -467.042774,-633.906609 Q-459.957607,-646.485636 -459.957607,-663.528189 Q-459.957607,-680.300225 -467.042774,-692.743994 Q-467.042774,-692.743994 -467.042774,-692.743994 ZM-258.738864,-653.789587C-258.738864,-653.789587 -382.87099,-653.789587 -382.87099,-653.789587 Q-381.453956,-631.877734 -367.141919,-619.569223 Q-352.829882,-607.260713 -332.424601,-607.260713 Q-315.703607,-607.260713 -304.509043,-614.699922 Q-293.314479,-622.139132 -288.779972,-634.582901 Q-261.006117,-634.582901 -261.006117,-634.582901 Q-267.241064,-613.21208 -285.945905,-599.821503 Q-304.650746,-586.430926 -332.424601,-586.430926 Q-354.530322,-586.430926 -371.959833,-595.899011 Q-389.389343,-605.367096 -399.308577,-622.815424 Q-409.227811,-640.263752 -409.227811,-663.257672 Q-409.227811,-686.251593 -399.591984,-703.564663 Q-389.956157,-720.877732 -372.526646,-730.210559 Q-355.097135,-739.543385 -332.424601,-739.543385 Q-310.31888,-739.543385 -293.314479,-730.345817 Q-276.310078,-721.148249 -267.099361,-705.052504 Q-257.888644,-688.95676 -257.888644,-668.668007 Q-257.888644,-661.634572 -258.738864,-653.789587 Q-258.738864,-653.789587 -258.738864,-653.789587 ZM-291.047226,-698.01907Q-297.565579,-708.163447 -308.760143,-713.438523 Q-319.954707,-718.713598 -333.558227,-718.713598 Q-353.113288,-718.713598 -366.858512,-706.810863 Q-380.603736,-694.908128 -382.587583,-673.807824 Q-284.528872,-673.807824 -284.528872,-673.807824 Q-284.528872,-687.874693 -291.047226,-698.01907 Q-291.047226,-698.01907 -291.047226,-698.01907 ZM-178.676477,-732.780468Q-166.06488,-739.813902 -147.926852,-739.813902 Q-147.926852,-714.385331 -147.926852,-714.385331 C-147.926852,-714.385331 -154.728613,-714.385331 -154.728613,-714.385331 Q-198.089835,-714.385331 -198.089835,-669.479557 Q-198.089835,-588.865576 -198.089835,-588.865576 C-198.089835,-588.865576 -223.879842,-588.865576 -223.879842,-588.865576 C-223.879842,-588.865576 -223.879842,-737.108735 -223.879842,-737.108735 C-223.879842,-737.108735 -198.089835,-737.108735 -198.089835,-737.108735 C-198.089835,-737.108735 -198.089835,-713.032747 -198.089835,-713.032747 Q-191.288074,-725.747033 -178.676477,-732.780468 Q-178.676477,-732.780468 -178.676477,-732.780468 ZM-118.169151,-703.429404Q-108.533324,-720.607215 -91.670626,-730.0753 Q-74.807929,-739.543385 -54.119241,-739.543385 Q-33.71396,-739.543385 -18.693406,-731.157367 Q-3.672852,-722.771349 3.695721,-710.057064 Q3.695721,-737.108735 3.695721,-737.108735 C3.695721,-737.108735 29.769136,-737.108735 29.769136,-737.108735 C29.769136,-737.108735 29.769136,-588.865576 29.769136,-588.865576 C29.769136,-588.865576 3.695721,-588.865576 3.695721,-588.865576 C3.695721,-588.865576 3.695721,-616.458281 3.695721,-616.458281 Q-3.956259,-603.473479 -19.118516,-594.952202 Q-34.280774,-586.430926 -54.402648,-586.430926 Q-75.091336,-586.430926 -91.81233,-596.169527 Q-108.533324,-605.908129 -118.169151,-623.491715 Q-127.804978,-641.075302 -127.804978,-663.528189 Q-127.804978,-686.251593 -118.169151,-703.429404 Q-118.169151,-703.429404 -118.169151,-703.429404 ZM-3.389446,-692.473477Q-10.474613,-704.917246 -22.519397,-711.544906 Q-34.564181,-718.172565 -49.017921,-718.172565 Q-63.471662,-718.172565 -75.374742,-711.680164 Q-87.277823,-705.187763 -94.36299,-692.743994 Q-101.448157,-680.300225 -101.448157,-663.528189 Q-101.448157,-646.485636 -94.36299,-633.906609 Q-87.277823,-621.327582 -75.374742,-614.699922 Q-63.471662,-608.072263 -49.017921,-608.072263 Q-34.564181,-608.072263 -22.519397,-614.699922 Q-10.474613,-621.327582 -3.389446,-633.906609 Q3.695721,-646.485636 3.695721,-663.257672 Q3.695721,-680.029708 -3.389446,-692.473477 Q-3.389446,-692.473477 -3.389446,-692.473477 ZM104.871906,-716.819981C104.871906,-716.819981 104.871906,-629.443083 104.871906,-629.443083 Q104.871906,-618.622415 109.689819,-614.158889 Q114.507733,-609.695363 126.410814,-609.695363 Q145.399061,-609.695363 145.399061,-609.695363 C145.399061,-609.695363 145.399061,-588.865576 145.399061,-588.865576 C145.399061,-588.865576 122.159713,-588.865576 122.159713,-588.865576 Q100.620806,-588.865576 89.851352,-598.333661 Q79.081898,-607.801746 79.081898,-629.443083 Q79.081898,-716.819981 79.081898,-716.819981 C79.081898,-716.819981 58.960024,-716.819981 58.960024,-716.819981 C58.960024,-716.819981 58.960024,-737.108735 58.960024,-737.108735 C58.960024,-737.108735 79.081898,-737.108735 79.081898,-737.108735 C79.081898,-737.108735 79.081898,-774.440041 79.081898,-774.440041 C79.081898,-774.440041 104.871906,-774.440041 104.871906,-774.440041 C104.871906,-774.440041 104.871906,-737.108735 104.871906,-737.108735 C104.871906,-737.108735 145.399061,-737.108735 145.399061,-737.108735 C145.399061,-737.108735 145.399061,-716.819981 145.399061,-716.819981 C145.399061,-716.819981 104.871906,-716.819981 104.871906,-716.819981 C104.871906,-716.819981 104.871906,-716.819981 104.871906,-716.819981 ZM204.77276,-595.899011Q187.059843,-605.367096 176.998906,-622.815424 Q166.937969,-640.263752 166.937969,-663.257672 Q166.937969,-685.981076 177.282312,-703.429404 Q187.626656,-720.877732 205.481277,-730.210559 Q223.335898,-739.543385 245.441619,-739.543385 Q267.54734,-739.543385 285.401961,-730.210559 Q303.256582,-720.877732 313.600925,-703.564663 Q323.945269,-686.251593 323.945269,-663.257672 Q323.945269,-640.263752 313.317519,-622.815424 Q302.689768,-605.367096 284.551741,-595.899011 Q266.413713,-586.430926 244.307992,-586.430926 Q222.485678,-586.430926 204.77276,-595.899011 Q204.77276,-595.899011 204.77276,-595.899011 ZM270.381407,-614.294147Q282.567894,-620.516032 290.078171,-632.9598 Q297.588448,-645.403569 297.588448,-663.257672 Q297.588448,-681.111775 290.219874,-693.555544 Q282.851301,-705.999313 270.94822,-712.085939 Q259.04514,-718.172565 245.158212,-718.172565 Q230.987878,-718.172565 219.226501,-712.085939 Q207.465124,-705.999313 200.379957,-693.555544 Q193.29479,-681.111775 193.29479,-663.257672 Q193.29479,-645.133053 200.238254,-632.689284 Q207.181717,-620.245515 218.801391,-614.158889 Q230.421065,-608.072263 244.307992,-608.072263 Q258.19492,-608.072263 270.381407,-614.294147 Q270.381407,-614.294147 270.381407,-614.294147 ZM403.157436,-732.780468Q415.769033,-739.813902 433.907061,-739.813902 Q433.907061,-714.385331 433.907061,-714.385331 C433.907061,-714.385331 427.105301,-714.385331 427.105301,-714.385331 Q383.744079,-714.385331 383.744079,-669.479557 Q383.744079,-588.865576 383.744079,-588.865576 C383.744079,-588.865576 357.954071,-588.865576 357.954071,-588.865576 C357.954071,-588.865576 357.954071,-737.108735 357.954071,-737.108735 C357.954071,-737.108735 383.744079,-737.108735 383.744079,-737.108735 C383.744079,-737.108735 383.744079,-713.032747 383.744079,-713.032747 Q390.545839,-725.747033 403.157436,-732.780468 Q403.157436,-732.780468 403.157436,-732.780468 Z" transform="matrix(1,0,0,1,0,0)" fill="#0574b4"/>
				</g>
			</g>
		</g>
		<path d="M540.849976,-789.043916C540.849976,-789.043916 540.849976,-588.861548 540.849976,-588.861548 C540.849976,-588.861548 515.059968,-588.861548 515.059968,-588.861548 C515.059968,-588.861548 515.059968,-789.043916 515.059968,-789.043916 C515.059968,-789.043916 540.849976,-789.043916 540.849976,-789.043916 C540.849976,-789.043916 540.849976,-789.043916 540.849976,-789.043916 ZM725.631131,-653.785559C725.631131,-653.785559 601.499005,-653.785559 601.499005,-653.785559 Q602.916039,-631.873705 617.228076,-619.565195 Q631.540113,-607.256684 651.945394,-607.256684 Q668.666388,-607.256684 679.860952,-614.695894 Q691.055516,-622.135104 695.590023,-634.578872 Q723.363877,-634.578872 723.363877,-634.578872 Q717.12893,-613.208052 698.42409,-599.817475 Q679.719249,-586.426897 651.945394,-586.426897 Q629.839673,-586.426897 612.410162,-595.894982 Q594.980652,-605.363067 585.061418,-622.811395 Q575.142184,-640.259723 575.142184,-663.253644 Q575.142184,-686.247565 584.778011,-703.560634 Q594.413838,-720.873704 611.843349,-730.20653 Q629.27286,-739.539357 651.945394,-739.539357 Q674.051115,-739.539357 691.055516,-730.341789 Q708.059917,-721.144221 717.270634,-705.048476 Q726.481351,-688.952732 726.481351,-668.663978 Q726.481351,-661.630544 725.631131,-653.785559 Q725.631131,-653.785559 725.631131,-653.785559 ZM693.322769,-698.015042Q686.804416,-708.159418 675.609852,-713.434494 Q664.415288,-718.70957 650.811767,-718.70957 Q631.256706,-718.70957 617.511483,-706.806835 Q603.766259,-694.904099 601.782412,-673.803796 Q699.841123,-673.803796 699.841123,-673.803796 Q699.841123,-687.870665 693.322769,-698.015042 Q693.322769,-698.015042 693.322769,-698.015042 ZM760.490152,-703.425376Q770.125979,-720.603187 786.988677,-730.071272 Q803.851374,-739.539357 824.540062,-739.539357 Q844.945343,-739.539357 859.965897,-731.153339 Q874.986451,-722.767321 882.355025,-710.053035 Q882.355025,-737.104707 882.355025,-737.104707 C882.355025,-737.104707 908.428439,-737.104707 908.428439,-737.104707 C908.428439,-737.104707 908.428439,-588.861548 908.428439,-588.861548 C908.428439,-588.861548 882.355025,-588.861548 882.355025,-588.861548 C882.355025,-588.861548 882.355025,-616.454253 882.355025,-616.454253 Q874.703044,-603.46945 859.540787,-594.948174 Q844.37853,-586.426897 824.256655,-586.426897 Q803.567968,-586.426897 786.846974,-596.165499 Q770.125979,-605.904101 760.490152,-623.487687 Q750.854325,-641.071274 750.854325,-663.524161 Q750.854325,-686.247565 760.490152,-703.425376 Q760.490152,-703.425376 760.490152,-703.425376 ZM875.269858,-692.469449Q868.184691,-704.913218 856.139907,-711.540877 Q844.095123,-718.168537 829.641382,-718.168537 Q815.187642,-718.168537 803.284561,-711.676136 Q791.38148,-705.183734 784.296313,-692.739966 Q777.211146,-680.296197 777.211146,-663.524161 Q777.211146,-646.481608 784.296313,-633.902581 Q791.38148,-621.323553 803.284561,-614.695894 Q815.187642,-608.068235 829.641382,-608.068235 Q844.095123,-608.068235 856.139907,-614.695894 Q868.184691,-621.323553 875.269858,-633.902581 Q882.355025,-646.481608 882.355025,-663.253644 Q882.355025,-680.02568 875.269858,-692.469449 Q875.269858,-692.469449 875.269858,-692.469449 ZM997.276433,-732.776439Q1009.88803,-739.809874 1028.026058,-739.809874 Q1028.026058,-714.381303 1028.026058,-714.381303 C1028.026058,-714.381303 1021.224298,-714.381303 1021.224298,-714.381303 Q977.863076,-714.381303 977.863076,-669.475528 Q977.863076,-588.861548 977.863076,-588.861548 C977.863076,-588.861548 952.073068,-588.861548 952.073068,-588.861548 C952.073068,-588.861548 952.073068,-737.104707 952.073068,-737.104707 C952.073068,-737.104707 977.863076,-737.104707 977.863076,-737.104707 C977.863076,-737.104707 977.863076,-713.028719 977.863076,-713.028719 Q984.664836,-725.743005 997.276433,-732.776439 Q997.276433,-732.776439 997.276433,-732.776439 ZM1179.365225,-723.443613Q1196.936439,-707.077351 1196.936439,-676.238446 Q1196.936439,-588.861548 1196.936439,-588.861548 C1196.936439,-588.861548 1171.429838,-588.861548 1171.429838,-588.861548 C1171.429838,-588.861548 1171.429838,-672.721729 1171.429838,-672.721729 Q1171.429838,-694.904099 1159.810164,-706.671576 Q1148.19049,-718.439053 1128.068616,-718.439053 Q1107.663335,-718.439053 1095.618551,-706.265801 Q1083.573767,-694.092549 1083.573767,-670.828112 Q1083.573767,-588.861548 1083.573767,-588.861548 C1083.573767,-588.861548 1057.783759,-588.861548 1057.783759,-588.861548 C1057.783759,-588.861548 1057.783759,-737.104707 1057.783759,-737.104707 C1057.783759,-737.104707 1083.573767,-737.104707 1083.573767,-737.104707 C1083.573767,-737.104707 1083.573767,-716.004403 1083.573767,-716.004403 Q1091.225747,-727.366105 1104.404158,-733.587989 Q1117.582569,-739.809874 1133.453343,-739.809874 Q1161.794011,-739.809874 1179.365225,-723.443613 Q1179.365225,-723.443613 1179.365225,-723.443613 ZM1240.014254,-766.049995Q1234.912934,-770.919296 1234.912934,-777.95273 Q1234.912934,-784.986165 1240.014254,-789.855466 Q1245.115574,-794.724766 1252.484148,-794.724766 Q1259.569315,-794.724766 1264.528932,-789.855466 Q1269.488549,-784.986165 1269.488549,-777.95273 Q1269.488549,-770.919296 1264.528932,-766.049995 Q1259.569315,-761.180694 1252.484148,-761.180694 Q1245.115574,-761.180694 1240.014254,-766.049995 Q1240.014254,-766.049995 1240.014254,-766.049995 ZM1264.954042,-737.104707C1264.954042,-737.104707 1264.954042,-588.861548 1264.954042,-588.861548 C1264.954042,-588.861548 1239.164034,-588.861548 1239.164034,-588.861548 C1239.164034,-588.861548 1239.164034,-737.104707 1239.164034,-737.104707 C1239.164034,-737.104707 1264.954042,-737.104707 1264.954042,-737.104707 C1264.954042,-737.104707 1264.954042,-737.104707 1264.954042,-737.104707 ZM1430.463543,-723.443613Q1448.034757,-707.077351 1448.034757,-676.238446 Q1448.034757,-588.861548 1448.034757,-588.861548 C1448.034757,-588.861548 1422.528156,-588.861548 1422.528156,-588.861548 C1422.528156,-588.861548 1422.528156,-672.721729 1422.528156,-672.721729 Q1422.528156,-694.904099 1410.908482,-706.671576 Q1399.288808,-718.439053 1379.166934,-718.439053 Q1358.761653,-718.439053 1346.716869,-706.265801 Q1334.672085,-694.092549 1334.672085,-670.828112 Q1334.672085,-588.861548 1334.672085,-588.861548 C1334.672085,-588.861548 1308.882077,-588.861548 1308.882077,-588.861548 C1308.882077,-588.861548 1308.882077,-737.104707 1308.882077,-737.104707 C1308.882077,-737.104707 1334.672085,-737.104707 1334.672085,-737.104707 C1334.672085,-737.104707 1334.672085,-716.004403 1334.672085,-716.004403 Q1342.324066,-727.366105 1355.502476,-733.587989 Q1368.680887,-739.809874 1384.551661,-739.809874 Q1412.892329,-739.809874 1430.463543,-723.443613 Q1430.463543,-723.443613 1430.463543,-723.443613 ZM1589.596394,-731.153339Q1604.758651,-722.767321 1612.127225,-710.053035 Q1612.127225,-737.104707 1612.127225,-737.104707 C1612.127225,-737.104707 1638.200639,-737.104707 1638.200639,-737.104707 C1638.200639,-737.104707 1638.200639,-585.615347 1638.200639,-585.615347 Q1638.200639,-565.326594 1629.131625,-549.501366 Q1620.062612,-533.676138 1603.199914,-524.749087 Q1586.337217,-515.822035 1563.948089,-515.822035 Q1533.340168,-515.822035 1512.934887,-529.618388 Q1492.529606,-543.41474 1488.845319,-567.220211 Q1514.35192,-567.220211 1514.35192,-567.220211 Q1518.60302,-553.694375 1531.923134,-545.443615 Q1545.243248,-537.192856 1563.948089,-537.192856 Q1585.20359,-537.192856 1598.665407,-549.907141 Q1612.127225,-562.621427 1612.127225,-585.615347 Q1612.127225,-616.724769 1612.127225,-616.724769 Q1604.475244,-603.739967 1589.45469,-595.083432 Q1574.434136,-586.426897 1554.312262,-586.426897 Q1533.623574,-586.426897 1516.760877,-596.165499 Q1499.898179,-605.904101 1490.262352,-623.487687 Q1480.626525,-641.071274 1480.626525,-663.524161 Q1480.626525,-686.247565 1490.262352,-703.425376 Q1499.898179,-720.603187 1516.760877,-730.071272 Q1533.623574,-739.539357 1554.312262,-739.539357 Q1574.434136,-739.539357 1589.596394,-731.153339 Q1589.596394,-731.153339 1589.596394,-731.153339 ZM1605.042058,-692.469449Q1597.956891,-704.913218 1585.912107,-711.540877 Q1573.867323,-718.168537 1559.413582,-718.168537 Q1544.959841,-718.168537 1533.056761,-711.676136 Q1521.15368,-705.183734 1514.068513,-692.739966 Q1506.983346,-680.296197 1506.983346,-663.524161 Q1506.983346,-646.481608 1514.068513,-633.902581 Q1521.15368,-621.323553 1533.056761,-614.695894 Q1544.959841,-608.068235 1559.413582,-608.068235 Q1573.867323,-608.068235 1585.912107,-614.695894 Q1597.956891,-621.323553 1605.042058,-633.902581 Q1612.127225,-646.481608 1612.127225,-663.253644 Q1612.127225,-680.02568 1605.042058,-692.469449 Q1605.042058,-692.469449 1605.042058,-692.469449 Z" transform="matrix(1,0,0,1,0,0)" fill="#78b4d6"/>
	</g>
</g></g></svg>