<svg xmlns="http://www.w3.org/2000/svg" viewBox="0 0 3447 1658" width="3447" height="1658"><defs></defs><g transform="matrix(1,0,0,1,0.076664562,-17.36402768)">
<g>
	<g transform="matrix(1,0,0,1,1723.5,838)">
		<path d="M-1080.775853,-474.776947C-1080.775853,-474.776947 -1008.112429,-818.748611 -1008.112429,-818.748611 C-1008.112429,-818.748611 -942.054771,-818.748611 -942.054771,-818.748611 C-942.054771,-818.748611 -1014.718195,-474.776947 -1014.718195,-474.776947 C-1014.718195,-474.776947 -1080.775853,-474.776947 -1080.775853,-474.776947 C-1080.775853,-474.776947 -1080.775853,-474.776947 -1080.775853,-474.776947 ZM-967.534153,-474.776947C-967.534153,-474.776947 -914.688026,-726.267889 -914.688026,-726.267889 C-914.688026,-726.267889 -848.630368,-726.267889 -848.630368,-726.267889 C-848.630368,-726.267889 -901.476495,-474.776947 -901.476495,-474.776947 C-901.476495,-474.776947 -967.534153,-474.776947 -967.534153,-474.776947 C-967.534153,-474.776947 -967.534153,-474.776947 -967.534153,-474.776947 ZM-906.666739,-760.712239C-906.666739,-760.712239 -894.398889,-820.635972 -894.398889,-820.635972 C-894.398889,-820.635972 -827.86939,-820.635972 -827.86939,-820.635972 C-827.86939,-820.635972 -840.609081,-760.712239 -840.609081,-760.712239 C-840.609081,-760.712239 -906.666739,-760.712239 -906.666739,-760.712239 C-906.666739,-760.712239 -906.666739,-760.712239 -906.666739,-760.712239 ZM-854.764293,-474.776947C-854.764293,-474.776947 -801.446326,-726.267889 -801.446326,-726.267889 C-801.446326,-726.267889 -741.050753,-726.267889 -741.050753,-726.267889 C-741.050753,-726.267889 -743.409955,-692.295379 -743.409955,-692.295379 C-743.409955,-692.295379 -740.578913,-692.295379 -740.578913,-692.295379 Q-723.592658,-711.168996 -700.000637,-721.077644 Q-676.408616,-730.986293 -650.929233,-730.986293 Q-620.259606,-730.986293 -600.914149,-717.538841 Q-581.568692,-704.091389 -574.255166,-680.027528 Q-566.941639,-655.963667 -574.019245,-622.934838 Q-605.160713,-474.776947 -605.160713,-474.776947 C-605.160713,-474.776947 -671.218371,-474.776947 -671.218371,-474.776947 C-671.218371,-474.776947 -641.020585,-619.631955 -641.020585,-619.631955 Q-636.774021,-638.977412 -639.840984,-652.660784 Q-642.907946,-666.344156 -653.288436,-673.893603 Q-663.668925,-681.443049 -682.070701,-681.443049 Q-702.831679,-681.443049 -721.233456,-671.770321 Q-739.635232,-662.097592 -752.846763,-645.583178 Q-788.706635,-474.776947 -788.706635,-474.776947 C-788.706635,-474.776947 -854.764293,-474.776947 -854.764293,-474.776947 C-854.764293,-474.776947 -854.764293,-474.776947 -854.764293,-474.776947 ZM-423.502153,-470.058543Q-455.587301,-470.058543 -480.358923,-479.495351 Q-505.130545,-488.932159 -520.937199,-506.154335 Q-536.743853,-523.37651 -542.405938,-548.148132 Q-548.068023,-572.919753 -541.934097,-603.589381 Q-535.800172,-630.012444 -535.800172,-630.012444 Q-529.194406,-662.569433 -509.848949,-684.981852 Q-490.503492,-707.394272 -461.485306,-719.190283 Q-432.46712,-730.986293 -396.607249,-730.986293 Q-364.5221,-730.986293 -339.750479,-721.549485 Q-314.978857,-712.112676 -298.936282,-694.654581 Q-282.893708,-677.196486 -277.467544,-652.660784 Q-272.041379,-628.125082 -278.175304,-597.455455 Q-283.837389,-570.560551 -283.837389,-570.560551 Q-289.971315,-538.947243 -309.316772,-516.298903 Q-328.662229,-493.650563 -357.680414,-481.854553 Q-386.6986,-470.058543 -423.502153,-470.058543 Q-423.502153,-470.058543 -423.502153,-470.058543 ZM-420.19927,-518.658106Q-401.797493,-518.658106 -387.878201,-524.556111 Q-373.958909,-530.454116 -365.229861,-542.014206 Q-356.500813,-553.574296 -353.19793,-569.616871 Q-343.761122,-614.44171 -343.761122,-614.44171 Q-339.042718,-636.146369 -344.704803,-651.245263 Q-350.366888,-666.344156 -364.28618,-674.365443 Q-378.205473,-682.38673 -399.438291,-682.38673 Q-417.840068,-682.38673 -431.75936,-676.252805 Q-445.678652,-670.118879 -454.4077,-658.794709 Q-463.136748,-647.470539 -466.43963,-631.427965 Q-476.348279,-586.131285 -476.348279,-586.131285 Q-480.594843,-564.426626 -475.168678,-549.327733 Q-469.742513,-534.228839 -455.587301,-526.443472 Q-441.432088,-518.658106 -420.19927,-518.658106 Q-420.19927,-518.658106 -420.19927,-518.658106 ZM-282.421868,-395.979597C-282.421868,-395.979597 -213.061327,-726.267889 -213.061327,-726.267889 C-213.061327,-726.267889 -156.912317,-726.267889 -156.912317,-726.267889 C-156.912317,-726.267889 -156.440477,-698.429304 -156.440477,-698.429304 C-156.440477,-698.429304 -153.609434,-698.429304 -153.609434,-698.429304 Q-140.869743,-713.528198 -119.872844,-722.257245 Q-98.875946,-730.986293 -75.283925,-730.986293 Q-51.220064,-730.986293 -31.166846,-722.257245 Q-11.113628,-713.528198 2.097903,-696.541943 Q15.309435,-679.555688 20.49968,-655.727747 Q25.689924,-631.899806 20.027839,-601.702019 Q12.950233,-567.257668 12.950233,-567.257668 Q6.816308,-536.116201 -9.462187,-514.411542 Q-25.740681,-492.706883 -49.568622,-481.618633 Q-73.396563,-470.530383 -103.122509,-470.530383 Q-133.320296,-470.530383 -155.732716,-483.505994 Q-178.145136,-496.481606 -188.053785,-516.770744 Q-190.884827,-516.770744 -190.884827,-516.770744 C-190.884827,-516.770744 -215.892369,-395.979597 -215.892369,-395.979597 C-215.892369,-395.979597 -282.421868,-395.979597 -282.421868,-395.979597 C-282.421868,-395.979597 -282.421868,-395.979597 -282.421868,-395.979597 ZM-120.580605,-519.129946Q-103.122509,-519.129946 -89.675058,-525.499792 Q-76.227606,-531.869637 -67.262638,-543.665648 Q-58.29767,-555.461658 -54.994787,-571.976073 Q-47.44534,-607.835944 -47.44534,-607.835944 Q-42.726936,-631.427965 -48.153101,-648.1783 Q-53.579266,-664.928635 -67.498558,-673.657682 Q-81.41785,-682.38673 -102.178829,-682.38673 Q-121.524286,-682.38673 -136.859099,-674.365443 Q-152.193913,-666.344156 -162.574402,-651.717103 Q-181.448019,-563.954786 -181.448019,-563.954786 Q-174.370412,-542.250126 -158.327838,-530.690036 Q-142.285264,-519.129946 -120.580605,-519.129946 Q-120.580605,-519.129946 -120.580605,-519.129946 ZM31.352009,-474.776947C31.352009,-474.776947 104.015433,-818.748611 104.015433,-818.748611 C104.015433,-818.748611 170.073092,-818.748611 170.073092,-818.748611 C170.073092,-818.748611 97.409668,-474.776947 97.409668,-474.776947 C97.409668,-474.776947 31.352009,-474.776947 31.352009,-474.776947 C31.352009,-474.776947 31.352009,-474.776947 31.352009,-474.776947 ZM279.540069,-470.058543Q247.45492,-470.058543 222.919219,-479.495351 Q198.383517,-488.932159 183.048703,-506.862095 Q167.71389,-524.792031 162.287725,-549.563653 Q156.86156,-574.335275 162.995486,-604.061221 Q168.18573,-629.540604 168.18573,-629.540604 Q174.791496,-661.625752 193.901033,-684.274092 Q213.01057,-706.922432 242.028755,-718.954362 Q271.046941,-730.986293 305.963132,-730.986293 Q335.217238,-730.986293 358.573338,-722.257245 Q381.929439,-713.528198 397.736093,-696.777863 Q413.542747,-680.027528 420.148513,-655.963667 Q426.754279,-631.899806 422.507715,-601.702019 Q419.676672,-584.243923 419.676672,-584.243923 C419.676672,-584.243923 218.672655,-584.243923 218.672655,-584.243923 C218.672655,-584.243923 226.222101,-623.878519 226.222101,-623.878519 C226.222101,-623.878519 367.774226,-623.878519 367.774226,-623.878519 C367.774226,-623.878519 359.752939,-613.96987 359.752939,-613.96987 C359.752939,-613.96987 362.112141,-625.76588 362.112141,-625.76588 Q364.471344,-644.639497 357.629658,-657.851029 Q350.787971,-671.06256 337.34052,-678.140166 Q323.893068,-685.217773 305.019451,-685.217773 Q284.258473,-685.217773 269.3955,-678.140166 Q254.532526,-671.06256 246.039399,-658.086949 Q237.546271,-645.111337 234.243389,-628.125082 Q225.278421,-582.356562 225.278421,-582.356562 Q221.975538,-562.067424 228.109463,-547.204451 Q234.243389,-532.341478 248.634521,-524.08427 Q263.025654,-515.827063 284.730313,-515.827063 Q306.906813,-515.827063 323.893068,-525.027951 Q340.879323,-534.228839 347.485089,-550.743254 Q412.599066,-550.743254 412.599066,-550.743254 Q405.52146,-525.735712 386.647843,-507.569856 Q367.774226,-489.404 340.171562,-479.731271 Q312.568898,-470.058543 279.540069,-470.058543 Q279.540069,-470.058543 279.540069,-470.058543 ZM549.432787,-470.058543Q524.425245,-470.058543 504.136107,-479.259431 Q483.846969,-488.460319 470.635437,-505.682494 Q457.423906,-522.904669 452.705502,-546.26077 Q447.987097,-569.616871 453.649182,-597.927296 Q461.198629,-633.315327 461.198629,-633.315327 Q467.332554,-665.400475 483.611049,-686.869214 Q499.889543,-708.337953 523.953404,-719.426203 Q548.017266,-730.514453 576.327691,-730.514453 Q606.997318,-730.514453 629.173817,-718.010682 Q651.350317,-705.506911 661.258966,-684.274092 Q664.561849,-684.274092 664.561849,-684.274092 C664.561849,-684.274092 681.076263,-726.267889 681.076263,-726.267889 C681.076263,-726.267889 739.584475,-726.267889 739.584475,-726.267889 C739.584475,-726.267889 686.738348,-474.776947 686.738348,-474.776947 C686.738348,-474.776947 631.061179,-474.776947 631.061179,-474.776947 C631.061179,-474.776947 630.117498,-503.087372 630.117498,-503.087372 C630.117498,-503.087372 627.758296,-503.087372 627.758296,-503.087372 Q615.018605,-487.044798 593.785786,-478.55167 Q572.552967,-470.058543 549.432787,-470.058543 Q549.432787,-470.058543 549.432787,-470.058543 ZM576.327691,-518.658106Q595.201307,-518.658106 610.536121,-526.443472 Q625.870935,-534.228839 636.251424,-548.384052 Q654.6532,-637.09005 654.6532,-637.09005 Q648.047434,-659.26655 632.00486,-670.3548 Q615.962286,-681.443049 594.729467,-681.443049 Q576.799531,-681.443049 563.116159,-675.309124 Q549.432787,-669.175199 540.703739,-657.379188 Q531.974692,-645.583178 528.671809,-629.068763 Q521.122362,-592.737051 521.122362,-592.737051 Q516.403958,-570.088711 521.830123,-553.338376 Q527.256287,-536.588041 541.4115,-527.623073 Q555.566712,-518.658106 576.327691,-518.658106 Q576.327691,-518.658106 576.327691,-518.658106 ZM732.978709,-474.776947C732.978709,-474.776947 786.296676,-726.267889 786.296676,-726.267889 C786.296676,-726.267889 843.389367,-726.267889 843.389367,-726.267889 C843.389367,-726.267889 843.389367,-688.992496 843.389367,-688.992496 C843.389367,-688.992496 848.107771,-688.992496 848.107771,-688.992496 Q862.262983,-710.697155 878.305558,-720.133964 Q894.348132,-729.570772 916.052791,-729.570772 Q931.623525,-729.570772 931.623525,-729.570772 C931.623525,-729.570772 918.883833,-667.759677 918.883833,-667.759677 C918.883833,-667.759677 894.348132,-667.759677 894.348132,-667.759677 Q880.192919,-667.759677 869.81243,-664.220874 Q859.431941,-660.682071 850.702893,-653.368545 Q841.973845,-646.055018 833.008877,-635.202689 Q799.036367,-474.776947 799.036367,-474.776947 C799.036367,-474.776947 732.978709,-474.776947 732.978709,-474.776947 C732.978709,-474.776947 732.978709,-474.776947 732.978709,-474.776947 ZM912.278068,-474.776947C912.278068,-474.776947 965.596035,-726.267889 965.596035,-726.267889 C965.596035,-726.267889 1025.991608,-726.267889 1025.991608,-726.267889 C1025.991608,-726.267889 1023.632406,-692.295379 1023.632406,-692.295379 C1023.632406,-692.295379 1026.463448,-692.295379 1026.463448,-692.295379 Q1043.449703,-711.168996 1067.041724,-721.077644 Q1090.633745,-730.986293 1116.113128,-730.986293 Q1146.782755,-730.986293 1166.128212,-717.538841 Q1185.473669,-704.091389 1192.787195,-680.027528 Q1200.100722,-655.963667 1193.023116,-622.934838 Q1161.881648,-474.776947 1161.881648,-474.776947 C1161.881648,-474.776947 1095.82399,-474.776947 1095.82399,-474.776947 C1095.82399,-474.776947 1126.021776,-619.631955 1126.021776,-619.631955 Q1130.26834,-638.977412 1127.201377,-652.660784 Q1124.134415,-666.344156 1113.753925,-673.893603 Q1103.373436,-681.443049 1084.97166,-681.443049 Q1064.210682,-681.443049 1045.808905,-671.770321 Q1027.407129,-662.097592 1014.195598,-645.583178 Q978.335726,-474.776947 978.335726,-474.776947 C978.335726,-474.776947 912.278068,-474.776947 912.278068,-474.776947 C912.278068,-474.776947 912.278068,-474.776947 912.278068,-474.776947 Z" transform="" fill="#0171b3"/>
		<g>
			<g>
				<g>
					<g>
						<path d="M21744.099609,5995.700195C20680.800781,6998.899902 19538,9601.519531 18423.300781,11179 C18298.800781,11199.599609 18175.199219,11190.799805 18052.900391,11148.299805 C17987.199219,11125.5 17921.800781,11092.900391 17856.699219,11051.599609 C18695.300781,9606.889648 19534.199219,7970 20328.099609,7237 C20328.099609,7237 20428.300781,7149.100098 20428.300781,7149.100098 C20428.300781,7149.100098 21744.099609,5995.700195 21744.099609,5995.700195 " transform="matrix(0.133333325,0,0,-0.133333325,-1865.756652832,1414.198364258)" fill="#3a3b40"/>
					</g>
					<g>
						<path d="M21603.199219,7002.200195C21897.699219,6491.100098 22190.300781,6003.399902 22478.900391,5587.600098 C23550.300781,5474.5 24520.599609,7776.200195 25478.699219,10053.099609 C25478.699219,10053.099609 24043.400391,11312.5 24043.400391,11312.5 C23251.099609,9429.889648 22458.900391,7547.299805 21603.199219,7002.200195 " transform="matrix(0.133333325,0,0,-0.133333325,-1865.756652832,1414.198364258)" fill="#3a3b40"/>
					</g>
					<g>
						<path d="M12612,6725.899902C13945,7008.399902 15211.900391,11923.299805 16614.599609,12410.400391 C16889.400391,12505.799805 17170.199219,12431.400391 17455.099609,12234.400391 C17455.099609,12234.400391 16307.900391,13255.599609 16307.900391,13255.599609 C16307.900391,13255.599609 16154.299805,13392.299805 16154.299805,13392.299805 C15822.200195,13665.299805 15495.200195,13783.099609 15176.299805,13672.400391 C13942.599609,13244 12830.200195,9394.19043 11673.299805,8280.490234 C11995.900391,7755.399902 12308,7202.200195 12612,6725.899902 " transform="matrix(0.133333325,0,0,-0.133333325,-1865.756652832,1414.198364258)" fill="#3a3b40"/>
					</g>
					<g>
						<path d="M3628.669922,8593.110352C3227.290039,8957.25 2865.97998,9682.030273 2504.659912,10406.799805 C2504.659912,10406.799805 1066.349976,11668.900391 1066.349976,11668.900391 C1438.219971,10922.900391 1810.089966,10177 2225.629883,9824.19043 C2225.629883,9824.19043 3628.669922,8593.110352 3628.669922,8593.110352 " transform="matrix(0.133333325,0,0,-0.133333325,-1865.756652832,1414.198364258)" fill="#569daa"/>
					</g>
					<g>
						<path d="M3628.659912,8593.120117C3227.290039,8957.269531 2865.97998,9682.040039 2504.659912,10406.799805 C2504.659912,10406.799805 1066.349976,11668.900391 1066.349976,11668.900391 C1438.219971,10922.900391 1810.089966,10177 2225.629883,9824.19043 C2225.629883,9824.19043 3628.659912,8593.120117 3628.659912,8593.120117 " transform="matrix(0.133333325,0,0,-0.133333325,-1865.756652832,1414.198364258)" fill="#569daa"/>
					</g>
					<g>
						<path d="M3549.620117,8662.480469C3235.639893,8987.400391 2944.530029,9530.889648 2658.5,10099.5 C2658.48999,10099.5 2658.47998,10099.5 2658.469971,10099.599609 C2607.120117,10201.299805 2555.889893,10304.099609 2504.659912,10406.799805 C2504.659912,10406.799805 1066.349976,11668.900391 1066.349976,11668.900391 C1438.219971,10922.900391 1810.089966,10177 2225.629883,9824.19043 C2225.629883,9824.19043 3549.620117,8662.480469 3549.620117,8662.480469 " transform="matrix(0.133333325,0,0,-0.133333325,-1865.756652832,1414.198364258)" fill="#3a3b40"/>
					</g>
					<g>
						<path d="M4337.700195,8373.959961C5454.220215,8650.549805 6854.339844,11390.5 8086.790039,11510 C8304.639648,11531.099609 8526.69043,11486.400391 8741.469727,11375.900391 C8741.469727,11375.900391 7652.049805,12331.599609 7652.049805,12331.599609 C7652.049805,12331.599609 7533.569824,12435.5 7533.569824,12435.5 C7247.919922,12670.799805 6953.330078,12801.599609 6648.490234,12772 C5532.560059,12663.900391 4279.180176,10407.299805 3223.330078,9776.230469 C3223.330078,9776.230469 3942.969971,9144.780273 3942.969971,9144.780273 C4073.909912,8882.110352 4204.850098,8619.450195 4337.700195,8373.959961 " transform="matrix(0.133333325,0,0,-0.133333325,-1865.756652832,1414.198364258)" fill="#3a3b40"/>
					</g>
					<g>
						<path d="M11867,7068.200195C11212.900391,7724.600098 10528.400391,9169.639648 9785.719727,10235 C9699.669922,10251.700195 9612.80957,10256.400391 9525.099609,10247.900391 C9413.530273,10237.099609 9300.570312,10204.799805 9186.580078,10154.799805 C9700.139648,9288.240234 10188.299805,8460.879883 10661.900391,8130.700195 C10661.900391,8130.700195 11867,7068.200195 11867,7068.200195 " transform="matrix(0.133333325,0,0,-0.133333325,-1865.756652832,1414.198364258)" fill="#3a3b40"/>
					</g>
				</g>
				<g>
					<g>
						<path d="M13889.299805,5459.600098C15228.5,5303 16470.099609,10171 17856.699219,11051.599609 C17921.800781,11092.900391 17987.199219,11125.5 18052.900391,11148.299805 C18175.199219,11190.799805 18298.800781,11199.599609 18423.300781,11179 C18553.300781,11157.400391 18684.5,11103.700195 18816.5,11022.599609 C18816.5,11022.599609 17891.800781,11845.700195 17891.800781,11845.700195 C17891.800781,11845.700195 17455.099609,12234.400391 17455.099609,12234.400391 C17170.199219,12431.400391 16889.400391,12505.799805 16614.599609,12410.400391 C15211.900391,11923.299805 13945,7008.399902 12612,6725.899902 C12881.700195,6303.299805 13145.099609,5941.299805 13403.799805,5713.200195 C13567.400391,5569 13729,5478.299805 13889.299805,5459.600098 " transform="matrix(0.133333325,0,0,-0.133333325,-1865.756652832,1414.198364258)" fill="#0171b3"/>
					</g>
					<g>
						<path d="M21888.400391,5869.299805C21888.400391,5869.299805 23165.400391,4749.899902 23165.400391,4749.899902 C22939.800781,4966.200195 22710.599609,5253.700195 22478.900391,5587.600098 C22190.300781,6003.399902 21897.699219,6491.100098 21603.199219,7002.200195 C20672.699219,8617.110352 19722.900391,10465.799805 18816.5,11022.599609 C18684.5,11103.700195 18553.300781,11157.400391 18423.300781,11179 C19538,9601.519531 20680.800781,6998.899902 21744.099609,5995.700195 C21744.099609,5995.700195 21888.400391,5869.299805 21888.400391,5869.299805 " transform="matrix(0.133333325,0,0,-0.133333325,-1865.756652832,1414.198364258)" fill="#0171b3"/>
					</g>
					<g>
						<path d="M25478.699219,10053.099609C24520.599609,7776.200195 23550.300781,5474.5 22478.900391,5587.600098 C22710.599609,5253.700195 22939.800781,4966.200195 23165.400391,4749.899902 C23407,4518.200195 23644.599609,4368.299805 23876.900391,4330.899902 C24970.099609,4154.799805 25945,6471.600098 26920,8788.44043 C26920,8788.44043 25478.699219,10053.099609 25478.699219,10053.099609 " transform="matrix(0.133333325,0,0,-0.133333325,-1865.756652832,1414.198364258)" fill="#0171b3"/>
					</g>
					<g>
						<path d="M5489.029785,7099.399902C6549.339844,6905.299805 7931,9604.110352 9186.580078,10154.799805 C9300.570312,10204.799805 9413.530273,10237.099609 9525.099609,10247.900391 C9612.80957,10256.400391 9699.669922,10251.700195 9785.719727,10235 C10004.900391,10192.400391 10218.799805,10072.299805 10427.900391,9896.669922 C10427.900391,9896.669922 8741.469727,11375.900391 8741.469727,11375.900391 C8526.69043,11486.400391 8304.639648,11531.099609 8086.790039,11510 C6854.339844,11390.5 5454.220215,8650.549805 4337.700195,8373.959961 C4571.180176,7942.5 4810.560059,7564 5066.169922,7331.799805 C5202.02002,7208.399902 5342.450195,7126.200195 5489.029785,7099.399902 " transform="matrix(0.133333325,0,0,-0.133333325,-1865.756652832,1414.198364258)" fill="#0171b3"/>
					</g>
					<g>
						<path d="M12612,6725.899902C12308,7202.200195 11995.900391,7755.399902 11673.299805,8280.490234 C11275.700195,8927.620117 10862.099609,9531.919922 10427.900391,9896.669922 C10218.799805,10072.299805 10004.900391,10192.400391 9785.719727,10235 C10528.400391,9169.639648 11212.900391,7724.600098 11867,7068.200195 C11867,7068.200195 12061.299805,6896.899902 12061.299805,6896.899902 C12061.299805,6896.899902 13403.799805,5713.200195 13403.799805,5713.200195 C13145.099609,5941.299805 12881.700195,6303.299805 12612,6725.899902 " transform="matrix(0.133333325,0,0,-0.133333325,-1865.756652832,1414.198364258)" fill="#0171b3"/>
					</g>
					<g>
						<path d="M4337.700195,8373.959961C4204.850098,8619.450195 4073.909912,8882.110352 3942.969971,9144.780273 C3942.969971,9144.780273 3223.330078,9776.230469 3223.330078,9776.230469 C3223.330078,9776.230469 2504.659912,10406.799805 2504.659912,10406.799805 C2555.909912,10304 2607.159912,10201.200195 2658.52002,10099.400391 C2969.27002,9483.700195 3284.209961,8905.620117 3628.649902,8593.139648 C3628.649902,8593.139648 5066.169922,7331.799805 5066.169922,7331.799805 C4810.560059,7564 4571.180176,7942.5 4337.700195,8373.959961 " transform="matrix(0.133333325,0,0,-0.133333325,-1865.756652832,1414.198364258)" fill="#0171b3"/>
					</g>
				</g>
				<g/>
			</g>
		</g>
	</g>
</g></g></svg>